<svg width="20" height="20" viewBox="0 0 20 20" fill="none" xmlns="http://www.w3.org/2000/svg">
<g clip-path="url(#clip0_0_1)">
<path d="M13.498 6.651C13.4147 6.43525 13.2871 6.23934 13.1235 6.07589C12.9599 5.91244 12.7638 5.78508 12.548 5.702C12.2508 5.59193 11.9369 5.53375 11.62 5.53C11.093 5.506 10.935 5.5 9.60001 5.5C8.26501 5.5 8.107 5.506 7.58 5.53C7.26276 5.53363 6.94852 5.59181 6.651 5.702C6.43525 5.7853 6.23934 5.91287 6.07589 6.0765C5.91244 6.24012 5.78508 6.43616 5.702 6.652C5.59193 6.9492 5.53375 7.2631 5.53 7.58C5.506 8.107 5.5 8.265 5.5 9.6C5.5 10.935 5.506 11.093 5.53 11.62C5.53364 11.9372 5.59182 12.2515 5.702 12.549C5.78531 12.7648 5.91288 12.9607 6.0765 13.1241C6.24012 13.2876 6.43617 13.4149 6.652 13.498C6.9492 13.6081 7.2631 13.6663 7.58 13.67C8.107 13.694 8.26501 13.699 9.60001 13.699C10.935 13.699 11.093 13.694 11.62 13.669C11.9372 13.6657 12.2514 13.6078 12.549 13.498C12.7648 13.4147 12.9607 13.2871 13.1241 13.1235C13.2876 12.9599 13.4149 12.7638 13.498 12.548C13.6081 12.2508 13.6663 11.9369 13.67 11.62C13.694 11.093 13.699 10.935 13.699 9.6C13.699 8.265 13.694 8.107 13.669 7.58C13.6657 7.26282 13.6079 6.94857 13.498 6.651V6.651ZM9.60001 12.168C9.0921 12.168 8.59561 12.0174 8.1733 11.7352C7.751 11.453 7.42185 11.052 7.22748 10.5827C7.03312 10.1135 6.98226 9.59715 7.08135 9.09901C7.18043 8.60086 7.42501 8.14329 7.78415 7.78415C8.1433 7.42501 8.60087 7.18043 9.09901 7.08134C9.59716 6.98226 10.1135 7.03311 10.5827 7.22748C11.052 7.42184 11.453 7.75099 11.7352 8.1733C12.0174 8.5956 12.168 9.0921 12.168 9.6C12.168 10.2811 11.8974 10.9343 11.4159 11.4159C10.9343 11.8974 10.2811 12.168 9.60001 12.168ZM12.269 7.531C12.1503 7.531 12.0343 7.49581 11.9357 7.42988C11.837 7.36395 11.7601 7.27025 11.7147 7.16061C11.6693 7.05097 11.6574 6.93033 11.6805 6.81395C11.7037 6.69756 11.7608 6.59065 11.8447 6.50674C11.9287 6.42282 12.0356 6.36568 12.152 6.34253C12.2683 6.31938 12.389 6.33126 12.4986 6.37667C12.6083 6.42208 12.702 6.49899 12.7679 6.59766C12.8338 6.69633 12.869 6.81233 12.869 6.931C12.869 7.09013 12.8058 7.24274 12.6933 7.35526C12.5807 7.46779 12.4281 7.531 12.269 7.531V7.531ZM11.267 9.6C11.267 9.9297 11.1692 10.252 10.9861 10.5261C10.8029 10.8003 10.5425 11.0139 10.2379 11.1401C9.93333 11.2663 9.59816 11.2993 9.27479 11.235C8.95142 11.1706 8.65439 11.0119 8.42126 10.7787C8.18812 10.5456 8.02936 10.2486 7.96504 9.92522C7.90071 9.60185 7.93373 9.26667 8.0599 8.96207C8.18607 8.65746 8.39973 8.39711 8.67387 8.21394C8.94801 8.03077 9.2703 7.933 9.60001 7.933C10.0421 7.933 10.4661 8.10863 10.7788 8.42125C11.0914 8.73388 11.267 9.15788 11.267 9.6V9.6ZM9.60001 0C7.7013 0 5.84524 0.56303 4.26653 1.61789C2.68782 2.67275 1.45736 4.17207 0.730761 5.92624C0.00415951 7.68041 -0.185952 9.61065 0.184466 11.4729C0.554884 13.3351 1.4692 15.0456 2.81178 16.3882C4.15436 17.7308 5.86492 18.6451 7.72714 19.0155C9.58935 19.386 11.5196 19.1958 13.2738 18.4692C15.0279 17.7426 16.5272 16.5122 17.5821 14.9335C18.637 13.3548 19.2 11.4987 19.2 9.6C19.2 7.05392 18.1886 4.61212 16.3882 2.81177C14.5879 1.01143 12.1461 0 9.60001 0V0ZM14.57 11.661C14.5615 12.0759 14.4828 12.4864 14.337 12.875C14.2086 13.2071 14.0122 13.5087 13.7604 13.7604C13.5087 14.0122 13.2071 14.2086 12.875 14.337C12.4867 14.4826 12.0766 14.5614 11.662 14.57C11.128 14.594 10.958 14.6 9.60001 14.6C8.24201 14.6 8.072 14.594 7.538 14.57C7.12341 14.5614 6.71327 14.4826 6.325 14.337C5.99293 14.2086 5.69134 14.0122 5.43958 13.7604C5.18782 13.5087 4.99143 13.2071 4.863 12.875C4.71737 12.4867 4.63858 12.0766 4.63 11.662C4.606 11.128 4.6 10.958 4.6 9.6C4.6 8.242 4.606 8.072 4.63 7.538C4.63826 7.12346 4.71671 6.71333 4.862 6.325C4.99042 5.99264 5.18691 5.6908 5.43886 5.43885C5.6908 5.18691 5.99264 4.99042 6.325 4.862C6.71333 4.7167 7.12347 4.63826 7.538 4.63C8.072 4.606 8.24201 4.6 9.60001 4.6C10.958 4.6 11.128 4.606 11.662 4.63C12.0765 4.63826 12.4867 4.7167 12.875 4.862C13.2072 4.99053 13.5088 5.18708 13.7606 5.43902C14.0124 5.69096 14.2087 5.99274 14.337 6.325C14.4826 6.71327 14.5614 7.12341 14.57 7.538C14.594 8.072 14.6 8.242 14.6 9.6C14.6 10.958 14.594 11.128 14.57 11.662V11.661Z" fill="#9E9E9E"/>
</g>
<defs>
<clipPath id="clip0_0_1">
<rect width="19.2" height="19.2" fill="white"/>
</clipPath>
</defs>
</svg>
